<?xml version="1.0" encoding="utf-8"?>
<!-- Generator: Adobe Illustrator 21.1.0, SVG Export Plug-In . SVG Version: 6.00 Build 0)  -->
<svg version="1.1" id="Layer_1" xmlns="http://www.w3.org/2000/svg" xmlns:xlink="http://www.w3.org/1999/xlink" x="0px" y="0px"
	 viewBox="0 0 400 400" style="enable-background:new 0 0 400 400;" xml:space="preserve">
<style type="text/css">
	.st0{fill:#FFFFFF;}
	.st1{fill:#2396FB;}
	.st2{fill:#303F9F;}
</style>
<title>easypost icon dark</title>
<desc>Created with Sketch.</desc>
<g id="Page-1">
	<g id="easypost-icon-dark">
		<rect id="base" class="st0" width="400" height="400"/>
		<g id="icon" transform="translate(64.000000, 126.000000)">
			<circle id="Oval-Copy" class="st1" cx="258.1" cy="102.6" r="18.7"/>
			<path id="Combined-Shape" class="st2" d="M123,72H32.7c5.7,15.3,19.1,22.5,32,22.5c13.4,0,24.6-6.4,32.2-12.9l18.4,22.2
				c-17,14.8-35.6,20.1-51.1,20.1C28,123.8,0.7,95.2,0.7,61c0-33.9,27-60.4,61.4-60.4C97,0.6,123,28.3,123,72z M33,48.1h56.1
				c-2.4-11.7-12.9-21.7-27.7-21.7C47.1,26.4,35.4,35.5,33,48.1z"/>
			<path id="Combined-Shape_1_" class="st2" d="M239.6,61.8c0,33.9-25,61.4-55.9,61.4c-13.6,0-25.2-4.5-34.1-13.6v61.2
				c0,1.1-0.9,2-2,2h-28.2v-111c0-33.7,24.8-61.2,60.2-61.2C214.8,0.6,239.6,28.1,239.6,61.8z M209.6,61.8c0-18.9-13.4-33-30-33
				s-30,14.8-30,33c0,18.6,13.4,33.7,30,33.7S209.6,80.9,209.6,61.8z"/>
		</g>
	</g>
</g>
</svg>
