<?xml version="1.0" encoding="UTF-8"?>
<svg width="400px" height="400px" viewBox="0 0 400 400" version="1.1" xmlns="http://www.w3.org/2000/svg" xmlns:xlink="http://www.w3.org/1999/xlink">
    <!-- Generator: Sketch 46.2 (44496) - http://www.bohemiancoding.com/sketch -->
    <title>easypost icon dark</title>
    <desc>Created with Sketch.</desc>
    <defs></defs>
    <g id="Page-1" stroke="none" stroke-width="1" fill="none" fill-rule="evenodd">
        <g id="easypost-icon-dark" fill-rule="nonzero">
            <rect id="base" fill="#303F9F" x="-7.10542736e-15" y="0" width="400" height="400"></rect>
            <g id="icon" transform="translate(64.000000, 126.000000)">
                <circle id="Oval-Copy" fill="#2396FB" cx="258.142638" cy="102.566881" r="18.7183958"></circle>
                <path d="M123.01904,71.9921711 L32.7408435,71.9921711 C38.4727924,87.2773683 51.84734,94.4423045 64.7442252,94.4423045 C78.1187727,94.4423045 89.3438394,87.9938619 96.9864381,81.5454193 L115.376441,103.756722 C98.419425,118.564256 79.7905912,123.818543 64.2665628,123.818543 C27.9642194,123.818543 0.7374618,95.1587981 0.7374618,61.0059356 C0.7374618,27.0919042 27.7253881,0.58164029 62.1170819,0.58164029 C96.9864381,0.58164029 123.01904,28.2860603 123.01904,71.9921711 Z M32.9796747,48.1090504 L89.1050082,48.1090504 C86.7166962,36.4063213 76.2081231,26.3754106 61.4005883,26.3754106 C47.0707159,26.3754106 35.3679868,35.4509965 32.9796747,48.1090504 Z" id="Combined-Shape" fill="#FFFFFF"></path>
                <path d="M239.603753,61.7603318 C239.603753,95.6474137 214.613611,123.166453 183.716709,123.166453 C170.085723,123.166453 158.499384,118.617852 149.639243,109.520649 L149.639243,170.749571 C149.639243,171.852285 148.734958,172.746211 147.633329,172.746211 L119.42389,172.746211 L119.42389,61.7603318 C119.42389,28.10068 144.186849,0.58164029 179.627413,0.58164029 C214.840794,0.58164029 239.603753,28.10068 239.603753,61.7603318 Z M209.615583,61.7603318 C209.615583,42.8836352 196.21178,28.7829702 179.627413,28.7829702 C163.043046,28.7829702 149.639243,43.5659254 149.639243,61.7603318 C149.639243,80.4095984 163.043046,95.4199836 179.627413,95.4199836 C196.21178,95.4199836 209.615583,80.8644585 209.615583,61.7603318 Z" id="Combined-Shape" fill="#FFFFFF"></path>
            </g>
        </g>
    </g>
</svg>