<?xml version="1.0" encoding="UTF-8"?>
<svg width="500px" height="116px" viewBox="0 0 500 116" version="1.1" xmlns="http://www.w3.org/2000/svg" xmlns:xlink="http://www.w3.org/1999/xlink">
    <!-- Generator: Sketch 46.2 (44496) - http://www.bohemiancoding.com/sketch -->
    <title>easypost logo dark</title>
    <desc>Created with Sketch.</desc>
    <defs></defs>
    <g id="Page-1" stroke="none" stroke-width="1" fill="none" fill-rule="evenodd">
        <g id="easypost-logo-dark" transform="translate(-90.000000, -200.000000)">
            <rect id="base" x="0" y="0" width="680" height="516"></rect>
            <g id="logo" transform="translate(90.000000, 200.000000)" fill-rule="nonzero">
                <ellipse id="dot" fill="#2396FB" cx="489.148182" cy="78.1045741" rx="10.3101459" ry="10.3063283"></ellipse>
                <path d="M456.935142,87.1287755 L468.906093,87.1287755 L468.906093,69.902249 L457.461338,69.902249 C452.725577,69.902249 449,66.3517435 449,61.6177363 L449,36 L469,36 L469,21 L453.995253,21 C451.236451,21 449,18.7526321 449,15.9966569 L449,0 L432.072398,0 L432.072398,61.4862361 C432.072398,78.4497621 441.675469,87.1287755 456.935142,87.1287755 Z" id="letter-t" fill="#303F9F"></path>
                <path d="M183.773829,26.3756821 L176.538639,38.6052009 C172.855269,36.7641981 168.645704,34.3971944 164.699237,34.3971944 C161.147416,34.3971944 158.516438,36.1066971 158.516438,38.7367011 C158.516438,41.7612058 162.068258,42.9447076 168.645704,45.4432114 C178.77497,49.1252171 187.720296,56.0947278 187.720296,67.1407448 C187.720296,78.3182619 178.380323,88.1807771 163.778394,88.1807771 C154.175324,88.1807771 146.15084,84.1042708 141.151981,80.8167658 L147.597878,67.272245 C150.886601,69.244748 158.516438,72.2692526 163.646845,72.2692526 C168.119508,72.2692526 170.092742,69.7707488 170.092742,67.272245 C170.092742,64.1162401 166.935568,62.2752373 158.779536,58.9877322 C153.254481,56.7522288 141.678177,52.0182215 141.678177,39.3942021 C141.678177,27.8221843 151.544345,20.3266728 164.041492,20.3266728 C171.013584,20.3266728 177.196383,22.6936765 183.773829,26.3756821 Z" id="letter-s" fill="#303F9F"></path>
                <path d="M349.065035,20.3266728 C367.744981,20.3266728 383.004654,35.5806963 383.004654,54.253725 C383.004654,72.9267536 367.744981,88.1807771 349.065035,88.1807771 C330.38509,88.1807771 315.125416,72.9267536 315.125416,54.253725 C315.125416,35.5806963 330.38509,20.3266728 349.065035,20.3266728 Z M349.065035,37.6846995 C339.856612,37.6846995 332.358324,45.0487108 332.358324,54.253725 C332.358324,63.4587391 339.856612,70.9542506 349.065035,70.9542506 C358.273459,70.9542506 365.640198,63.4587391 365.640198,54.253725 C365.640198,45.0487108 358.273459,37.6846995 349.065035,37.6846995 Z" id="letter-o" fill="#303F9F"></path>
                <path d="M312.191875,54.1430939 C312.191875,72.8012843 298.427234,87.9532375 281.409132,87.9532375 C273.901146,87.9532375 267.519357,85.4487824 262.639166,80.4398723 L262.639166,113.255124 C262.639166,114.357857 261.744382,115.251798 260.631667,115.251798 L245.996464,115.251798 L245.996464,54.1430939 C245.996464,35.6101263 259.635972,20.458173 279.156736,20.458173 C298.552367,20.458173 312.191875,35.6101263 312.191875,54.1430939 Z M295.674306,54.1430939 C295.674306,43.7496053 288.291452,35.9857945 279.156736,35.9857945 C270.022019,35.9857945 262.639166,44.1252736 262.639166,54.1430939 C262.639166,64.4113597 270.022019,72.6760615 279.156736,72.6760615 C288.291452,72.6760615 295.674306,64.6618052 295.674306,54.1430939 Z" id="letter-p" fill="#303F9F"></path>
                <path d="M250.929548,21 L223.698923,87.3917759 C217.253026,102.7773 206.334467,111.850813 192.390282,114.612318 L186.865228,99.2267941 C196.994494,97.254291 204.624331,90.5477807 208.439249,79.7647641 L184.365799,21 L203.177293,21 L215.763347,51.9822132 C216.804032,54.5439945 218.480567,54.551642 219.514869,51.9822132 L231.986505,21 L250.929548,21 Z" id="letter-y" fill="#303F9F"></path>
                <path d="M426.086923,26.3756821 L418.851733,38.6052009 C415.168363,36.7641981 410.958798,34.3971944 407.012331,34.3971944 C403.46051,34.3971944 400.829532,36.1066971 400.829532,38.7367011 C400.829532,41.7612058 404.381352,42.9447076 410.958798,45.4432114 C421.088064,49.1252171 430.03339,56.0947278 430.03339,67.1407448 C430.03339,78.3182619 420.693417,88.1807771 406.091488,88.1807771 C396.488418,88.1807771 388.463934,84.1042708 383.465075,80.8167658 L389.910972,67.272245 C393.199695,69.244748 400.829532,72.2692526 405.959939,72.2692526 C410.432602,72.2692526 412.405836,69.7707488 412.405836,67.272245 C412.405836,64.1162401 409.248662,62.2752373 401.09263,58.9877322 C395.567575,56.7522288 383.991271,52.0182215 383.991271,39.3942021 C383.991271,27.8221843 393.857439,20.3266728 406.354586,20.3266728 C413.326678,20.3266728 419.509477,22.6936765 426.086923,26.3756821 Z" id="letter-s" fill="#303F9F"></path>
                <path d="M138,21 L138,87 L123.064006,87 L123.064006,81.4742668 C117.670501,85.550773 111.093055,88.1807771 103.594767,88.1807771 C84.914822,88.1807771 69.6551484,72.9267536 69.6551484,54.1222247 C69.6551484,35.4491961 84.914822,20.3266728 103.594767,20.3266728 C110.961506,20.3266728 117.538952,22.8251767 122.932457,27.0331831 L122.932457,21 L138,21 Z M103.989414,70.9542506 C113.197838,70.9542506 120.564577,63.4587391 120.564577,54.1222247 C120.564577,44.9172106 113.197838,37.5531993 103.989414,37.5531993 C94.7809904,37.5531993 87.4142513,44.9172106 87.4142513,54.1222247 C87.4142513,63.4587391 94.7809904,70.9542506 103.989414,70.9542506 Z" id="letter-a" fill="#303F9F"></path>
                <path d="M67.3530424,60 L17.6275541,60 C20.7847279,68.4160129 28.1514669,72.0062522 35.2551081,72.0062522 C42.6218472,72.0062522 48.804646,68.4557468 53.0142111,64.9052413 L63.1434773,77.1347601 C53.8035046,85.2877726 43.5426895,88.1807771 34.9920103,88.1807771 C14.9965759,88.1807771 0,72.4007528 0,53.5962239 C0,34.9231953 14.8650269,20.3266728 33.8080701,20.3266728 C53.0142111,20.3266728 67.3530424,35.935463 67.3530424,60 Z M17.759103,46.495213 L48.6730971,46.495213 C47.357608,40.0517031 41.5694559,34.5286946 33.4134234,34.5286946 C25.5204887,34.5286946 19.0745921,39.5257023 17.759103,46.495213 Z" id="letter-e" fill="#303F9F"></path>
            </g>
        </g>
    </g>
</svg>